<?xml version="1.0" encoding="utf-8"?>
<!-- Generator: Adobe Illustrator 26.3.1, SVG Export Plug-In . SVG Version: 6.00 Build 0)  -->
<svg version="1.1" id="Capa_1" xmlns="http://www.w3.org/2000/svg" xmlns:xlink="http://www.w3.org/1999/xlink" x="0px" y="0px"
	 viewBox="0 0 100 100" style="enable-background:new 0 0 100 100;" xml:space="preserve">
<!-- <rect class="st0" width="100" height="100"/> -->
<path id="J" class="st1" d="M35.9,18h9.2v45.2c0,22.1-31.6,26.3-36.9,4.5l7.8-5.5c2.3,14.7,19.7,12,19.9-2.8V18z"/>
<g id="A">
	<path class="st1" d="M45.1,41.4"/>
	<path class="st1" d="M44.9,66.5L44.9,66.5c2.3-1.4,3.8-2.8,8.4-3.2l20.1,0.1L81.5,82h10.3L67,22.8c-2.6-6.4-11.4-6.7-13.8,0
		L34.8,65.2c-3.9,9.5-16.9,9.6-18.8-3l-7.8,5.5C13.3,88.4,41.9,85.7,44.9,66.5 M54.8,54.2c-2.1,0.2-5.5,2.4-5.5,2.4L59.5,32
		c0.5-0.9,1-0.8,1.5,0l9,22C70,54,56,54,54.8,54.2z"/>
</g>
<style type="text/css">
.st0{fill:#333333;}
.st1 {
  fill: #a3a3a300;
  stroke: #a3a3a3;
  stroke-width: 2px;
  stroke-dashoffset: 280;
  stroke-dasharray: 280;
  filter: blur(0%);
  animation: fill0 10s infinite alternate ease, dash 8s infinite linear alternate;
}


@keyframes fill0 {
  to {
    filter: blur(100%);
  }
}

@keyframes dash {
  to {
    stroke-dashoffset: 0;
  }
}


</style>
</svg>
